<mxfile host="app.diagrams.net" modified="2023-05-27T13:20:46.781Z" agent="Mozilla/5.0 (Macintosh; Intel Mac OS X 10_15_7) AppleWebKit/605.1.15 (KHTML, like Gecko) Version/15.1 Safari/605.1.15" etag="NyD1YjsOhjYITd3Axzbt" version="21.3.4" type="github">
  <diagram name="Page-1" id="_zvvXsHfhflo3vjCpBME">
    <mxGraphModel dx="643" dy="398" grid="1" gridSize="10" guides="1" tooltips="1" connect="1" arrows="1" fold="1" page="1" pageScale="1" pageWidth="827" pageHeight="1169" math="0" shadow="0">
      <root>
        <mxCell id="0" />
        <mxCell id="1" parent="0" />
        <mxCell id="6jNYPlkzJLPuuYC0jRvq-1" value="" style="endArrow=classic;html=1;rounded=0;entryX=0.25;entryY=0;entryDx=0;entryDy=0;" parent="1" target="6jNYPlkzJLPuuYC0jRvq-5" edge="1">
          <mxGeometry width="50" height="50" relative="1" as="geometry">
            <mxPoint x="316" y="390" as="sourcePoint" />
            <mxPoint x="366" y="440" as="targetPoint" />
          </mxGeometry>
        </mxCell>
        <mxCell id="6jNYPlkzJLPuuYC0jRvq-2" value="" style="endArrow=classic;html=1;rounded=0;" parent="1" target="6jNYPlkzJLPuuYC0jRvq-3" edge="1">
          <mxGeometry width="50" height="50" relative="1" as="geometry">
            <mxPoint x="289" y="390" as="sourcePoint" />
            <mxPoint x="239" y="440" as="targetPoint" />
          </mxGeometry>
        </mxCell>
        <mxCell id="6jNYPlkzJLPuuYC0jRvq-3" value="A" style="text;html=1;strokeColor=none;fillColor=none;align=center;verticalAlign=middle;whiteSpace=wrap;rounded=0;fontSize=27;" parent="1" vertex="1">
          <mxGeometry x="209" y="425" width="60" height="30" as="geometry" />
        </mxCell>
        <mxCell id="6jNYPlkzJLPuuYC0jRvq-4" value="OAD" style="text;html=1;strokeColor=none;fillColor=none;align=center;verticalAlign=middle;whiteSpace=wrap;rounded=0;fontSize=27;" parent="1" vertex="1">
          <mxGeometry x="273" y="360" width="60" height="30" as="geometry" />
        </mxCell>
        <mxCell id="6jNYPlkzJLPuuYC0jRvq-5" value="MACE" style="text;html=1;strokeColor=none;fillColor=none;align=center;verticalAlign=middle;whiteSpace=wrap;rounded=0;fontSize=27;" parent="1" vertex="1">
          <mxGeometry x="338" y="424" width="60" height="30" as="geometry" />
        </mxCell>
        <mxCell id="6jNYPlkzJLPuuYC0jRvq-6" value="" style="endArrow=classic;html=1;rounded=0;" parent="1" edge="1">
          <mxGeometry width="50" height="50" relative="1" as="geometry">
            <mxPoint x="269" y="440" as="sourcePoint" />
            <mxPoint x="320" y="440" as="targetPoint" />
          </mxGeometry>
        </mxCell>
        <mxCell id="6jNYPlkzJLPuuYC0jRvq-7" value="" style="shape=flexArrow;endArrow=classic;html=1;rounded=0;" parent="1" edge="1">
          <mxGeometry width="50" height="50" relative="1" as="geometry">
            <mxPoint x="414" y="410" as="sourcePoint" />
            <mxPoint x="474" y="410" as="targetPoint" />
          </mxGeometry>
        </mxCell>
        <mxCell id="6jNYPlkzJLPuuYC0jRvq-8" value="" style="endArrow=classic;html=1;rounded=0;entryX=0.25;entryY=0;entryDx=0;entryDy=0;" parent="1" target="6jNYPlkzJLPuuYC0jRvq-12" edge="1">
          <mxGeometry width="50" height="50" relative="1" as="geometry">
            <mxPoint x="597" y="390" as="sourcePoint" />
            <mxPoint x="647" y="440" as="targetPoint" />
          </mxGeometry>
        </mxCell>
        <mxCell id="6jNYPlkzJLPuuYC0jRvq-9" value="" style="endArrow=classic;html=1;rounded=0;" parent="1" target="6jNYPlkzJLPuuYC0jRvq-10" edge="1">
          <mxGeometry width="50" height="50" relative="1" as="geometry">
            <mxPoint x="570" y="390" as="sourcePoint" />
            <mxPoint x="520" y="440" as="targetPoint" />
          </mxGeometry>
        </mxCell>
        <mxCell id="6jNYPlkzJLPuuYC0jRvq-10" value="A" style="text;html=1;strokeColor=none;fillColor=none;align=center;verticalAlign=middle;whiteSpace=wrap;rounded=0;fontSize=27;" parent="1" vertex="1">
          <mxGeometry x="490" y="425" width="60" height="30" as="geometry" />
        </mxCell>
        <mxCell id="6jNYPlkzJLPuuYC0jRvq-11" value="OAD" style="text;html=1;strokeColor=none;fillColor=none;align=center;verticalAlign=middle;whiteSpace=wrap;rounded=0;fontSize=27;" parent="1" vertex="1">
          <mxGeometry x="554" y="360" width="60" height="30" as="geometry" />
        </mxCell>
        <mxCell id="6jNYPlkzJLPuuYC0jRvq-12" value="MACE" style="text;html=1;strokeColor=none;fillColor=none;align=center;verticalAlign=middle;whiteSpace=wrap;rounded=0;fontSize=27;" parent="1" vertex="1">
          <mxGeometry x="619" y="424" width="60" height="30" as="geometry" />
        </mxCell>
        <mxCell id="6jNYPlkzJLPuuYC0jRvq-13" value="" style="endArrow=classic;html=1;rounded=0;" parent="1" edge="1">
          <mxGeometry width="50" height="50" relative="1" as="geometry">
            <mxPoint x="550" y="440" as="sourcePoint" />
            <mxPoint x="600" y="440" as="targetPoint" />
          </mxGeometry>
        </mxCell>
        <mxCell id="6jNYPlkzJLPuuYC0jRvq-14" value="" style="endArrow=none;html=1;rounded=0;fillColor=#f8cecc;strokeColor=#FF3333;strokeWidth=5;" parent="1" edge="1">
          <mxGeometry width="50" height="50" relative="1" as="geometry">
            <mxPoint x="570" y="420" as="sourcePoint" />
            <mxPoint x="540" y="390" as="targetPoint" />
          </mxGeometry>
        </mxCell>
        <mxCell id="6jNYPlkzJLPuuYC0jRvq-15" value="Ignorability" style="text;html=1;strokeColor=none;fillColor=none;align=center;verticalAlign=middle;whiteSpace=wrap;rounded=0;" parent="1" vertex="1">
          <mxGeometry x="410" y="360" width="60" height="30" as="geometry" />
        </mxCell>
      </root>
    </mxGraphModel>
  </diagram>
</mxfile>
